<?xml version="1.0" standalone="no"?>
<!DOCTYPE svg PUBLIC "-//W3C//DTD SVG 20010904//EN"
 "http://www.w3.org/TR/2001/REC-SVG-20010904/DTD/svg10.dtd">
<svg version="1.0" xmlns="http://www.w3.org/2000/svg"
 width="700.000000pt" height="700.000000pt" viewBox="0 0 700.000000 700.000000"
 preserveAspectRatio="xMidYMid meet">
<metadata>
Created by potrace 1.14, written by Peter Selinger 2001-2017
</metadata>
<g transform="translate(0.000000,700.000000) scale(0.100000,-0.100000)"
fill="#000000" stroke="none">
<path d="M2040 6553 c-226 -28 -418 -169 -527 -388 -56 -112 -104 -289 -118
-435 -6 -67 -7 -361 -1 -415 2 -16 6 -61 10 -100 4 -38 9 -77 11 -85 2 -8 6
-35 9 -60 6 -50 10 -71 33 -180 8 -41 17 -84 19 -95 2 -11 10 -47 18 -80 8
-33 14 -61 13 -61 -1 -1 -47 -15 -102 -32 -371 -111 -731 -287 -957 -468 -69
-56 -195 -182 -212 -212 -5 -9 -16 -23 -23 -31 -21 -20 -110 -211 -118 -251
-34 -177 -22 -293 47 -440 154 -333 565 -613 1206 -822 87 -28 158 -52 159
-53 2 -1 -2 -16 -7 -34 -13 -45 -67 -315 -75 -371 -3 -25 -8 -56 -10 -70 -4
-29 -16 -139 -21 -190 -6 -63 -6 -344 1 -405 48 -467 258 -754 601 -819 149
-28 387 4 549 74 305 131 607 339 897 619 l58 55 47 -45 c408 -390 845 -651
1183 -705 59 -9 191 -10 258 -1 163 22 341 135 440 279 81 119 148 306 167
468 3 30 8 73 11 95 12 81 6 364 -10 482 -3 21 -8 63 -12 93 -13 102 -11 90
-33 205 -12 64 -50 235 -57 258 -3 10 0 17 8 17 21 0 287 91 413 140 136 54
385 180 484 245 690 450 700 1060 26 1512 -207 139 -442 247 -790 361 -77 25
-141 46 -142 47 -2 1 3 26 11 56 8 30 20 81 27 114 7 33 13 62 14 65 1 3 5 28
9 55 4 28 12 66 16 85 5 19 11 64 15 100 3 36 8 76 10 90 16 88 22 379 10 508
-14 155 -68 352 -123 452 -88 161 -197 263 -342 323 -96 39 -141 48 -254 51
-219 6 -452 -71 -736 -242 -76 -46 -183 -119 -231 -156 -14 -12 -41 -32 -59
-46 -77 -58 -172 -138 -293 -250 -33 -30 -63 -55 -67 -55 -4 0 -34 25 -67 55
-118 109 -140 128 -263 226 -308 245 -609 403 -865 455 -57 11 -212 18 -265
12z m290 -339 c176 -46 407 -176 629 -354 107 -86 107 -86 231 -200 101 -92
99 -81 24 -163 -97 -105 -275 -326 -418 -519 -73 -99 -91 -118 -114 -119 -15
0 -34 -2 -42 -3 -8 -2 -51 -7 -95 -11 -44 -4 -82 -8 -85 -10 -3 -1 -32 -5 -65
-9 -33 -3 -71 -8 -85 -11 -36 -6 -258 -43 -300 -50 -19 -3 -72 -14 -116 -24
l-82 -17 -10 35 c-6 20 -22 92 -36 161 -32 160 -35 176 -41 230 -3 25 -8 54
-10 65 -10 50 -19 221 -18 335 3 235 49 422 133 540 105 147 264 186 500 124z
m2637 18 c117 -27 203 -114 272 -272 69 -159 85 -514 35 -818 -3 -17 -7 -47
-9 -65 -2 -17 -9 -54 -14 -82 -31 -155 -54 -249 -62 -259 -4 -4 -52 1 -106 12
-92 20 -226 44 -318 57 -22 4 -51 8 -65 10 -28 5 -169 22 -245 30 -27 3 -66 7
-85 10 -19 2 -45 4 -57 4 -16 1 -48 36 -125 139 -95 127 -263 341 -277 352 -4
3 -17 18 -29 34 -12 15 -50 60 -84 98 -35 39 -66 76 -70 83 -7 11 28 47 197
199 251 226 589 425 785 463 109 21 184 23 257 5z m-1421 -935 c84 -93 107
-121 214 -254 60 -75 110 -140 110 -144 0 -4 -17 -5 -37 -2 -52 6 -619 6 -665
0 -21 -3 -38 -2 -38 1 0 20 352 442 369 442 5 0 26 -19 47 -43z m324 -712 c85
-3 175 -8 200 -9 l45 -2 96 -144 c96 -145 228 -365 309 -515 23 -44 51 -94 61
-112 44 -78 149 -292 149 -303 0 -23 -258 -507 -360 -676 -50 -82 -63 -102
-166 -258 -43 -66 -82 -123 -85 -128 -21 -32 -782 -41 -1188 -13 -24 1 -46 7
-50 12 -167 244 -354 561 -513 870 l-99 192 86 168 c204 400 511 902 553 904
9 0 26 2 37 5 11 2 121 7 245 10 124 4 226 7 227 8 4 3 317 -3 453 -9z m-1428
-116 c-20 -33 -45 -72 -54 -87 -10 -15 -21 -34 -25 -42 -3 -8 -9 -17 -12 -20
-3 -3 -15 -23 -27 -45 -11 -22 -30 -56 -41 -75 -11 -19 -36 -64 -55 -100 -20
-36 -48 -87 -63 -115 -16 -27 -35 -62 -42 -77 -17 -33 -33 -45 -33 -24 0 9 -9
35 -20 58 -28 63 -66 164 -126 335 l-53 152 68 15 c91 21 342 65 411 72 30 4
57 8 59 10 2 2 15 4 27 4 23 0 22 -2 -14 -61z m2167 46 c25 -3 55 -7 66 -9 11
-2 42 -7 68 -10 27 -4 59 -9 70 -12 12 -2 33 -6 47 -9 27 -5 110 -21 150 -30
68 -13 85 -18 91 -21 12 -7 -187 -554 -201 -554 -3 0 -22 33 -43 73 -64 123
-105 196 -212 372 -135 225 -130 215 -103 210 12 -3 42 -7 67 -10z m-2990
-252 c30 -91 105 -298 146 -403 32 -81 59 -146 141 -336 12 -29 10 -37 -31
-127 -23 -54 -41 -97 -38 -97 3 0 1 -6 -5 -13 -16 -19 -154 -373 -197 -507
-21 -63 -41 -119 -45 -123 -8 -9 -123 25 -293 87 -130 47 -146 54 -332 147
-427 212 -631 460 -570 691 74 287 475 548 1165 757 29 9 33 5 59 -76z m3897
57 c341 -109 634 -249 823 -394 126 -96 228 -222 261 -320 17 -54 20 -145 4
-188 -7 -21 -13 -41 -13 -44 0 -2 -16 -33 -35 -69 -59 -104 -202 -235 -361
-331 -151 -91 -475 -231 -655 -284 -41 -12 -87 -25 -102 -30 -30 -10 -25 -19
-87 160 -63 185 -127 352 -201 525 l-69 162 63 144 c35 79 82 194 106 254 23
61 48 124 55 140 7 17 32 89 55 160 45 138 48 145 57 145 3 0 48 -13 99 -30z
m-3385 -1237 c87 -161 123 -224 207 -368 52 -88 106 -179 119 -202 l24 -42
-23 4 c-13 2 -57 9 -98 14 -41 6 -86 13 -100 15 -14 3 -41 7 -60 10 -42 7 -72
13 -170 33 -41 8 -87 17 -102 20 -16 3 -28 11 -28 17 0 7 20 70 44 141 39 114
64 183 134 363 9 23 19 42 22 42 3 0 17 -21 31 -47z m2790 0 c12 -27 36 -91
56 -143 19 -52 38 -104 43 -115 5 -11 27 -73 49 -137 40 -118 40 -118 18 -123
-66 -15 -125 -27 -147 -30 -14 -3 -34 -6 -45 -9 -11 -2 -65 -11 -120 -20 -55
-10 -111 -19 -125 -21 -14 -3 -49 -7 -78 -11 l-53 -6 67 108 c37 60 81 134 97
164 16 30 46 84 67 120 41 72 118 213 134 247 6 13 12 23 14 23 1 0 12 -21 23
-47z m-3058 -821 c4 0 20 -3 35 -6 61 -14 78 -17 327 -60 47 -8 263 -36 330
-42 33 -4 71 -8 85 -9 14 -2 35 -4 47 -4 17 -1 48 -36 124 -138 84 -114 249
-323 269 -343 3 -3 18 -21 34 -40 16 -19 56 -66 90 -104 33 -37 64 -74 68 -81
5 -8 -22 -40 -78 -91 -47 -44 -92 -84 -98 -91 -32 -29 -148 -123 -211 -170
-38 -29 -74 -56 -80 -60 -5 -5 -46 -31 -90 -59 -198 -127 -389 -199 -548 -208
-342 -19 -506 300 -464 898 4 55 11 127 17 160 5 34 12 79 15 101 2 22 7 51
10 65 3 14 7 39 10 55 3 17 17 78 31 137 25 101 27 106 47 99 12 -5 25 -9 30
-9z m3346 -67 c11 -44 23 -96 26 -115 3 -19 12 -69 20 -110 8 -41 17 -97 21
-125 3 -27 8 -59 10 -70 16 -83 22 -347 10 -460 -11 -117 -15 -137 -37 -210
-60 -200 -166 -315 -315 -342 -164 -30 -413 45 -658 200 -107 67 -308 222
-411 318 -167 154 -159 145 -139 166 35 35 190 217 263 308 40 50 77 97 84
105 12 15 201 274 202 277 0 1 34 4 75 8 41 3 86 8 100 10 14 2 48 7 75 10 28
3 61 7 75 10 14 2 48 7 75 10 28 3 61 7 75 10 32 6 71 13 145 25 33 6 110 20
170 33 61 12 111 22 112 22 1 0 10 -36 22 -80z m-1729 -97 c151 0 301 2 333 5
31 3 57 3 57 0 0 -6 -77 -111 -90 -123 -3 -3 -36 -43 -74 -90 -38 -47 -101
-120 -138 -162 l-69 -77 -97 112 c-54 62 -133 157 -177 212 -43 55 -85 107
-92 116 -12 15 -9 16 29 12 24 -2 167 -4 318 -5z"/>
<path d="M3467 4124 c-1 -1 -26 -5 -55 -8 -296 -35 -534 -309 -535 -616 -1
-210 109 -408 292 -524 83 -54 132 -73 229 -89 248 -43 488 65 626 281 182
286 107 649 -174 847 -57 40 -144 78 -215 93 -45 10 -162 21 -168 16z"/>
</g>
</svg>
